#!OML:ASF X:\für Bonn\!DataBase\2005_08_11_Bastian_Final\c3d\Bastian.ASF
:FULLY-SPECIFIED
:DEGREES
784
root 0.099494 2.09449 -1.75154 116.146 26.6635 -176.852
lowerback 49.4142 -18.9794 -7.02843
upperback 21.4173 -15.6285 8.724
thorax 7.89635 -5.2131 17.9562
lowerneck 12.2926 2.21226 4.57067
upperneck 7.62297 4.25458 -8.96905
head 0.634998 2.50473 -3.89476
rclavicle 4.77083e-015 1.90833e-014
rhumerus 31.5304 -69.8307 -86.4753
rradius 122.181
rwrist -206.97
rhand 6.15184 -4.96778
rfingers 7.12502
rthumb 31.468 -32.279
lclavicle 4.77083e-015 1.90833e-014
lhumerus -29.5984 19.8799 26.1343
lradius 24.8509
lwrist 189.445
lhand -16.784 10.3103
lfingers 7.12502
lthumb 9.44373 40.0787
rfemur -69.3823 9.64301 39.4514
rtibia 90.2328
rfoot 14.1736 -5.5173
rtoes -6.63175
lfemur -56.6733 31.5794 -2.07706
ltibia 63.0103
lfoot 19.7899 -5.18529
ltoes -22.2911
785
root 0.103115 2.09996 -1.75704 116.187 26.6562 -176.941
lowerback 49.1924 -19.0474 -6.38271
upperback 21.3202 -15.391 8.90338
thorax 7.64332 -4.99634 17.8064
lowerneck 12.3673 1.97019 4.52803
upperneck 7.62487 3.95959 -9.21462
head 0.60361 2.37053 -3.96834
rclavicle -9.06458e-014 1.90833e-013
rhumerus 33.8474 -70.575 -89.7181
rradius 123.772
rwrist -208.348
rhand 9.09483 -6.13268
rfingers 7.12502
rthumb 34.2673 -32.8567
lclavicle -9.06458e-014 1.90833e-013
lhumerus -31.577 19.1934 27.245
lradius 25.6833
lwrist 189.811
lhand -16.6618 11.1781
lfingers 7.12502
lthumb 9.56163 40.9411
rfemur -69.4415 9.49678 39.3751
rtibia 90.2967
rfoot 14.1409 -5.86195
rtoes -6.56331
lfemur -56.6726 31.5752 -2.10085
ltibia 62.9829
lfoot 19.9214 -5.17622
ltoes -22.28
786
root 0.106072 2.10541 -1.76226 116.256 26.6521 -177.013
lowerback 48.928 -19.0994 -5.68926
upperback 21.204 -15.1205 9.11536
thorax 7.36745 -4.76274 17.6602
lowerneck 12.4385 1.68997 4.44759
upperneck 7.66026 3.61492 -9.44132
head 0.578134 2.21209 -4.02569
rclavicle -7.95139e-015 -6.04305e-014
rhumerus 36.0249 -71.2032 -92.7396
rradius 125.488
rwrist -209.7
rhand 11.8367 -7.44134
rfingers 7.12502
rthumb 36.8663 -33.5403
lclavicle -7.95139e-015 -6.04305e-014
lhumerus -33.5034 18.0711 28.799
lradius 26.5733
lwrist 191.379
lhand -16.1685 12.0576
lfingers 7.12502
lthumb 10.0376 41.7982
rfemur -69.51 9.33721 39.3041
rtibia 90.3392
rfoot 14.1483 -6.22515
rtoes -6.41187
lfemur -56.7171 31.5614 -2.13652
ltibia 62.9633
lfoot 20.0422 -5.13259
ltoes -22.2214
787
root 0.109294 2.11041 -1.7669 116.314 26.6499 -177.09
lowerback 48.6255 -19.1035 -4.97927
upperback 21.1078 -14.7841 9.34983
thorax 7.10865 -4.49677 17.5119
lowerneck 12.4402 1.35295 4.46389
upperneck 7.74477 3.21223 -9.71334
head 0.577538 2.02645 -4.11466
rclavicle 1.04958e-013 -6.99722e-014
rhumerus 38.0909 -71.7248 -95.5003
rradius 127.266
rwrist -210.864
rhand 14.4689 -8.77866
rfingers 7.12502
rthumb 39.3515 -34.1971
lclavicle 1.04958e-013 -6.99722e-014
lhumerus -35.3212 16.6485 30.6833
lradius 27.525
lwrist 194.041
lhand -15.6397 12.8618
lfingers 7.12502
lthumb 10.5478 42.5772
rfemur -69.5668 9.17836 39.2436
rtibia 90.3854
rfoot 14.2024 -6.55683
rtoes -6.22293
lfemur -56.7317 31.509 -2.14195
ltibia 62.9402
lfoot 20.1243 -5.08141
ltoes -22.2325
788
root 0.111737 2.115 -1.77259 116.389 26.6718 -177.144
lowerback 48.3265 -19.0747 -4.24554
upperback 20.9924 -14.3975 9.62678
thorax 6.82315 -4.2079 17.3865
lowerneck 12.4553 0.976951 4.5189
upperneck 7.85743 2.77239 -10.0488
head 0.580849 1.82638 -4.2335
rclavicle 1.17681e-013 1.39944e-013
rhumerus 39.9547 -72.0679 -97.9796
rradius 129.116
rwrist -211.648
rhand 16.7353 -9.58892
rfingers 7.12502
rthumb 41.4825 -34.35
lclavicle 1.17681e-013 1.39944e-013
lhumerus -37.0535 15.1035 32.7695
lradius 28.4058
lwrist 197.647
lhand -15.4858 13.5653
lfingers 7.12502
lthumb 10.6962 43.2731
rfemur -69.6326 9.02193 39.207
rtibia 90.4218
rfoot 14.2889 -7.02616
rtoes -6.12048
lfemur -56.769 31.4645 -2.12225
ltibia 62.9266
lfoot 20.2103 -5.00576
ltoes -21.9718
